<svg width="154" height="69" viewBox="0 0 154 69" fill="none" xmlns="http://www.w3.org/2000/svg">
<path fill-rule="evenodd" clip-rule="evenodd" d="M79.805 0.197252C79.7446 0.303074 79.3869 1.31454 79.0103 2.44467C77.5476 6.83395 76.5597 7.81355 72.0278 9.36928C70.7218 9.81748 69.695 10.2921 69.7463 10.4242C69.7975 10.5559 70.8466 11.0113 72.0775 11.4359C76.5314 12.9721 77.4308 13.8705 79.0046 18.3571C79.4483 19.6219 79.9293 20.6957 80.0736 20.7433C80.2179 20.791 80.4733 20.2884 80.6414 19.6265C81.0866 17.873 82.1264 15.4424 82.912 14.3182C83.6632 13.2436 86.1006 11.9339 88.7515 11.1806C91.2065 10.4827 91.1451 10.4113 86.7567 8.86021C84.0302 7.89651 82.7649 6.74482 81.7345 4.28961C81.3086 3.2748 80.8209 1.89553 80.6507 1.22464C80.3629 0.0904007 80.0695 -0.265845 79.805 0.197252ZM61.6232 12.2028C61.4808 12.2501 59.7906 12.7199 57.8674 13.2469C53.8419 14.3498 49.0525 16.1159 46.9883 17.2584C44.3755 18.7044 42.0668 20.5463 42.0668 21.1843C42.0668 23.0719 46.9052 25.4577 50.652 25.4176L52.0393 25.403L50.7196 24.8076C49.9938 24.4804 49.3237 24.0155 49.2304 23.7746C49.0994 23.4363 48.8696 23.3726 48.219 23.4941L47.3769 23.6513L48.1508 23.2175C50.7846 21.7411 55.8545 20.509 62.3068 19.7778C67.286 19.2135 69.0055 18.8441 69.0055 18.3387C69.0055 17.9786 68.841 17.8093 67.1459 16.4277C66.6217 16.0006 65.8775 15.1067 65.4918 14.4415C64.3845 12.5308 63.8612 12.0736 62.8085 12.0967C62.299 12.1078 61.7657 12.1556 61.6232 12.2028ZM95.8876 12.5259C95.67 12.7733 95.1722 13.4955 94.7813 14.1312C93.9131 15.5431 92.3356 17.2134 91.8701 17.2134C91.6026 17.2134 91.0226 18.1704 91.0226 18.6122C91.0226 18.8308 93.6354 19.2954 96.8564 19.6496C103.795 20.4122 107.777 21.2914 110.791 22.7256C111.814 23.2123 112.323 23.5439 111.921 23.462C111.373 23.3503 111.101 23.4417 110.827 23.8285C110.627 24.1121 109.965 24.5567 109.356 24.8171L108.248 25.2902L109.256 25.3791C111.659 25.5908 116.385 23.8401 117.478 22.3329C118.349 21.1327 118.213 20.7921 116.278 19.3396C112.935 16.831 108.839 15.0569 101.9 13.1123C97.8168 11.9681 96.4924 11.8389 95.8876 12.5259Z" fill="white"/>
<path d="M19.5355 33.6949C19.7744 34.2053 19.9507 34.7555 20.0644 35.3453C20.1782 35.9351 20.2237 36.5306 20.2009 37.1318C20.1896 37.7217 20.1156 38.3058 19.9791 38.8843C19.8426 39.4515 19.6379 39.9846 19.3649 40.4837C19.0692 41.0281 18.6768 41.5045 18.1877 41.9129C17.6986 42.3099 17.1583 42.6445 16.5668 42.9167C15.9753 43.1776 15.3611 43.3705 14.7242 43.4952C14.0872 43.62 13.4787 43.6824 12.8986 43.6824C12.6142 43.6824 12.3071 43.6767 11.9772 43.6654C11.6474 43.654 11.3061 43.6257 10.9535 43.5803C10.6123 43.5349 10.2597 43.4726 9.89572 43.3932C9.54312 43.3024 9.1962 43.1776 8.85497 43.0188C8.7526 42.9735 8.68435 42.9735 8.65023 43.0188C8.62748 43.0529 8.61611 43.0869 8.61611 43.1209V50.199C8.61611 50.7321 8.72985 51.1631 8.95734 51.4921C9.18482 51.821 9.44643 52.0819 9.74217 52.2747C10.0493 52.4676 10.3507 52.6037 10.6464 52.6831C10.9422 52.7511 11.1583 52.7965 11.2948 52.8192C11.3971 52.8419 11.4711 52.8816 11.5166 52.9383C11.5734 52.995 11.5962 53.0574 11.5848 53.1255C11.5848 53.1822 11.5564 53.2389 11.4995 53.2956C11.4426 53.341 11.3573 53.3637 11.2436 53.3637H0.358293C0.244549 53.3637 0.159242 53.341 0.10237 53.2956C0.0454976 53.2389 0.0113744 53.1822 0 53.1255C0 53.0574 0.0227488 52.995 0.0682463 52.9383C0.125118 52.8816 0.204739 52.8419 0.307109 52.8192C0.443601 52.7965 0.659715 52.7511 0.955449 52.6831C1.25118 52.6037 1.54692 52.4676 1.84265 52.2747C2.14976 52.0819 2.41706 51.821 2.64455 51.4921C2.87204 51.1631 2.98578 50.7321 2.98578 50.199V33.5588C2.98578 33.037 2.87204 32.6116 2.64455 32.2827C2.41706 31.9424 2.14976 31.6815 1.84265 31.5C1.54692 31.3072 1.25118 31.1711 0.955449 31.0917C0.659715 31.0123 0.443601 30.9612 0.307109 30.9385C0.204739 30.9272 0.125118 30.8932 0.0682463 30.8365C0.0227488 30.7684 0 30.706 0 30.6493C0.0113744 30.5812 0.0454976 30.5245 0.10237 30.4792C0.159242 30.4224 0.244549 30.3941 0.358293 30.3941H11.4483C12.0967 30.3941 12.7336 30.3998 13.3592 30.4111C13.9962 30.4224 14.6104 30.4848 15.2019 30.5983C15.8047 30.7117 16.3848 30.8988 16.9422 31.1597C17.5109 31.4206 18.0569 31.7949 18.5801 32.2827C18.7734 32.4755 18.9497 32.6967 19.109 32.9463C19.2796 33.1958 19.4218 33.4453 19.5355 33.6949ZM10.6464 42.3553C11.2948 42.3553 11.8407 42.2305 12.2843 41.9809C12.7279 41.7201 13.0919 41.3514 13.3763 40.875C13.6606 40.3986 13.8654 39.8258 13.9905 39.1565C14.1156 38.476 14.1782 37.716 14.1782 36.8766C14.1782 36.162 14.1497 35.4757 14.0929 34.8178C14.0474 34.16 13.9223 33.5815 13.7175 33.0824C13.5242 32.5833 13.2284 32.1863 12.8303 31.8914C12.4322 31.5851 11.8862 31.432 11.1924 31.432C10.6692 31.432 10.2426 31.5227 9.91279 31.7042C9.58293 31.8743 9.32132 32.1069 9.12795 32.4018C8.93459 32.6967 8.7981 33.037 8.71847 33.4227C8.65023 33.797 8.61611 34.1883 8.61611 34.5967V40.2114C8.61611 40.9601 8.7981 41.5045 9.16208 41.8448C9.53743 42.1851 10.0322 42.3553 10.6464 42.3553Z" fill="white"/>
<path d="M42.6961 52.8149C42.7851 52.8371 42.8462 52.8759 42.8795 52.9313C42.9129 52.9868 42.924 53.0477 42.9129 53.1142C42.9018 53.1807 42.8684 53.2417 42.8128 53.2971C42.7573 53.3415 42.6795 53.3637 42.5794 53.3637H32.1082C32.0304 53.3637 31.9637 53.3415 31.9082 53.2971C31.8637 53.2528 31.8303 53.2029 31.8081 53.1475C31.797 53.081 31.8081 53.02 31.8415 52.9646C31.8859 52.9092 31.9637 52.8648 32.0749 52.8316C32.1861 52.7983 32.3806 52.7373 32.6585 52.6487C32.9475 52.56 33.2198 52.4159 33.4755 52.2163C33.7423 52.0057 33.9479 51.7286 34.0924 51.3849C34.2369 51.0413 34.2203 50.6034 34.0424 50.0713C33.9868 49.9272 33.909 49.7111 33.809 49.4229C33.72 49.1346 33.62 48.8187 33.5088 48.4751C33.3977 48.1204 33.2754 47.7601 33.142 47.3943C33.0197 47.0174 32.9086 46.6737 32.8085 46.3633C32.7085 46.0419 32.6196 45.7703 32.5418 45.5486C32.464 45.3269 32.4195 45.1939 32.4084 45.1495C32.375 45.0497 32.3139 44.9999 32.225 44.9999H25.0385C24.9385 44.9999 24.8718 45.0442 24.8385 45.1329C24.794 45.2659 24.7217 45.4876 24.6217 45.798C24.5328 46.1084 24.4272 46.4576 24.3049 46.8456C24.1826 47.2335 24.0548 47.6437 23.9214 48.076C23.7991 48.4972 23.6824 48.8908 23.5712 49.2566C23.4601 49.6224 23.36 49.9439 23.2711 50.221C23.1933 50.487 23.1488 50.6589 23.1377 50.7365C23.0488 51.1466 23.0655 51.4792 23.1877 51.7341C23.3211 51.9891 23.499 52.1942 23.7213 52.3494C23.9436 52.4935 24.1826 52.5988 24.4383 52.6653C24.6939 52.7318 24.9052 52.7872 25.0719 52.8316C25.1719 52.8537 25.2386 52.8981 25.272 52.9646C25.3053 53.02 25.3164 53.081 25.3053 53.1475C25.2942 53.2029 25.2609 53.2528 25.2053 53.2971C25.1497 53.3415 25.083 53.3637 25.0052 53.3637H18.8359C18.7469 53.3637 18.6803 53.3415 18.6358 53.2971C18.5802 53.2528 18.5524 53.2029 18.5524 53.1475C18.5413 53.0921 18.558 53.0366 18.6024 52.9812C18.6358 52.9147 18.6969 52.8704 18.7859 52.8482C19.0749 52.7706 19.3583 52.6764 19.6362 52.5655C19.9141 52.4547 20.1698 52.3161 20.4032 52.1498C20.6478 51.9725 20.8645 51.7618 21.0535 51.518C21.2536 51.2741 21.4203 50.9859 21.5537 50.6533C21.6204 50.487 21.7649 50.0935 21.9872 49.4727C22.2095 48.8409 22.4819 48.0705 22.8042 47.1615C23.1266 46.2414 23.4823 45.2271 23.8714 44.1186C24.2604 43.0101 24.6495 41.8905 25.0385 40.7598C25.4387 39.618 25.8278 38.5095 26.2057 37.4342C26.5836 36.3479 26.9171 35.3835 27.2061 34.541C27.4952 33.6985 27.7286 33.0168 27.9064 32.4958C28.0954 31.9748 28.1955 31.6976 28.2066 31.6644C28.251 31.5424 28.3066 31.4482 28.3733 31.3817C28.44 31.3152 28.5456 31.2708 28.6901 31.2487C28.9347 31.2043 29.2181 31.1434 29.5405 31.0658C29.8628 30.9882 30.1908 30.905 30.5242 30.8163C30.8688 30.7277 31.2079 30.6334 31.5413 30.5337C31.8748 30.4228 32.1805 30.3064 32.4584 30.1845C32.6474 30.0958 32.7808 30.0736 32.8586 30.118C32.9475 30.1623 33.0197 30.251 33.0753 30.384C33.0864 30.4173 33.1754 30.6944 33.3421 31.2154C33.52 31.7364 33.7478 32.4182 34.0257 33.2606C34.3147 34.092 34.6371 35.0454 34.9928 36.1206C35.3485 37.1959 35.7154 38.3044 36.0933 39.4462C36.4823 40.588 36.8658 41.7242 37.2438 42.8549C37.6217 43.9856 37.9663 45.022 38.2776 45.9643C38.5999 46.9065 38.8723 47.7213 39.0946 48.4086C39.3169 49.0848 39.4725 49.5448 39.5614 49.7887C39.7282 50.2653 39.9227 50.681 40.145 51.0358C40.3785 51.3794 40.6286 51.6787 40.8954 51.9337C41.1733 52.1775 41.4623 52.3715 41.7624 52.5156C42.0625 52.6597 42.3738 52.7595 42.6961 52.8149ZM25.3053 43.7029C25.2497 43.847 25.2942 43.9191 25.4387 43.9191H31.7914C31.9248 43.9191 31.9693 43.8525 31.9248 43.7195C31.9137 43.6863 31.8581 43.5255 31.7581 43.2373C31.6692 42.938 31.5469 42.5611 31.3913 42.1066C31.2356 41.641 31.0634 41.12 30.8744 40.5436C30.6854 39.9672 30.4909 39.3852 30.2908 38.7977C30.0907 38.1991 29.8962 37.6171 29.7072 37.0518C29.5182 36.4753 29.3459 35.9654 29.1903 35.522C29.0458 35.0675 28.9235 34.7017 28.8235 34.4246C28.7346 34.1474 28.6901 34.0033 28.6901 33.9923C28.6679 33.9147 28.6179 33.8814 28.54 33.8925C28.4734 33.9036 28.4289 33.9424 28.4067 34.0089C28.3955 34.0311 28.3288 34.2361 28.2066 34.6241C28.0843 35.001 27.9287 35.4888 27.7397 36.0874C27.5507 36.6749 27.3395 37.3344 27.1061 38.0661C26.8727 38.7866 26.6392 39.5016 26.4058 40.2111C26.1835 40.9205 25.9723 41.5856 25.7722 42.2064C25.5832 42.8272 25.4276 43.326 25.3053 43.7029Z" fill="white"/>
<path d="M53.1305 52.8439C53.2283 52.8656 53.2988 52.9035 53.3423 52.9576C53.3965 53.0118 53.4183 53.0713 53.4074 53.1363C53.4074 53.1904 53.3803 53.2445 53.326 53.2987C53.2717 53.342 53.1903 53.3637 53.0817 53.3637H42.6912C42.5826 53.3637 42.5012 53.342 42.4469 53.2987C42.3926 53.2445 42.36 53.1904 42.3492 53.1363C42.3492 53.0713 42.3709 53.0118 42.4143 52.9576C42.4686 52.9035 42.5446 52.8656 42.6423 52.8439C42.7726 52.8223 42.9789 52.779 43.2612 52.714C43.5435 52.6382 43.8258 52.5083 44.1081 52.3242C44.4012 52.1402 44.6564 51.8911 44.8735 51.5771C45.0907 51.2631 45.1992 50.8517 45.1992 50.3428V34.459C45.1992 33.9609 45.0907 33.5549 44.8735 33.2409C44.6564 32.9161 44.4012 32.6671 44.1081 32.4938C43.8258 32.3098 43.5435 32.1798 43.2612 32.104C42.9789 32.0282 42.7726 31.9795 42.6423 31.9579C42.5446 31.947 42.4686 31.9146 42.4143 31.8604C42.3709 31.7955 42.3492 31.7359 42.3492 31.6818C42.36 31.6168 42.3926 31.5627 42.4469 31.5194C42.5012 31.4652 42.5826 31.4381 42.6912 31.4381H53.0817C53.1903 31.4381 53.2717 31.4652 53.326 31.5194C53.3803 31.5627 53.4074 31.6168 53.4074 31.6818C53.4183 31.7359 53.3965 31.7955 53.3423 31.8604C53.2988 31.9146 53.2283 31.947 53.1305 31.9579C53.0003 31.9795 52.794 32.0282 52.5117 32.104C52.2294 32.1798 51.9417 32.3098 51.6485 32.4938C51.3662 32.6671 51.1165 32.9161 50.8993 33.2409C50.6822 33.5549 50.5736 33.9609 50.5736 34.459V50.3428C50.5736 50.8517 50.6822 51.2631 50.8993 51.5771C51.1165 51.8911 51.3662 52.1402 51.6485 52.3242C51.9417 52.5083 52.2294 52.6382 52.5117 52.714C52.794 52.779 53.0003 52.8223 53.1305 52.8439Z" fill="white"/>
<path d="M80.7721 52.8563C80.8675 52.8775 80.9363 52.9144 80.9787 52.9673C81.0317 53.0201 81.0529 53.0783 81.0423 53.1417C81.0423 53.1945 81.0158 53.2474 80.9628 53.3002C80.9099 53.3425 80.8304 53.3637 80.7244 53.3637H70.5813C70.4753 53.3637 70.3958 53.3425 70.3428 53.3002C70.2898 53.2474 70.258 53.1945 70.2474 53.1417C70.2474 53.0783 70.2686 53.0201 70.311 52.9673C70.364 52.9144 70.4382 52.8775 70.5336 52.8563C70.6607 52.8352 70.8621 52.7929 71.1377 52.7295C71.4133 52.6555 71.6888 52.5287 71.9644 52.349C72.2506 52.1693 72.4996 51.9262 72.7116 51.6197C72.9236 51.3131 73.0296 50.9115 73.0296 50.4147V35.7177C73.0296 35.6437 72.9978 35.5961 72.9342 35.575C72.8812 35.5433 72.8282 35.5803 72.7752 35.686C72.754 35.7283 72.6745 35.9238 72.5367 36.2726C72.399 36.6108 72.2188 37.0653 71.9962 37.6361C71.7736 38.1963 71.514 38.8463 71.2172 39.5862C70.9204 40.3155 70.6077 41.0923 70.2792 41.9168C69.9506 42.7412 69.6115 43.5868 69.2617 44.4535C68.9225 45.3202 68.5887 46.1657 68.2601 46.9902C67.9315 47.804 67.6189 48.5756 67.3221 49.3049C67.0359 50.0342 66.7816 50.679 66.559 51.2392C66.3364 51.7888 66.1562 52.2274 66.0184 52.5551C65.8807 52.8827 65.8065 53.0571 65.7959 53.0783C65.7323 53.184 65.6475 53.2368 65.5415 53.2368C65.4461 53.2368 65.3719 53.184 65.3189 53.0783C65.3083 53.0571 65.2341 52.8722 65.0963 52.5234C64.9586 52.164 64.7731 51.6884 64.5399 51.0965C64.3067 50.5046 64.0365 49.8175 63.7291 49.0354C63.4217 48.2427 63.0932 47.4077 62.7434 46.5304C62.4042 45.6425 62.0545 44.7336 61.6941 43.8034C61.3337 42.8627 60.9787 41.9485 60.6289 41.0606C60.2898 40.1728 59.9665 39.3325 59.6591 38.5398C59.3517 37.7471 59.0815 37.0495 58.8483 36.447C58.6151 35.8339 58.4243 35.3425 58.276 34.9725C58.1276 34.6026 58.0481 34.3965 58.0375 34.3542C58.0057 34.2696 57.958 34.2274 57.8944 34.2274C57.8308 34.2274 57.7937 34.2802 57.7831 34.3859C57.7831 34.4176 57.7831 34.6713 57.7831 35.1469C57.7831 35.612 57.7831 36.225 57.7831 36.986C57.7831 37.747 57.7831 38.6085 57.7831 39.5703C57.7831 40.5216 57.7831 41.494 57.7831 42.4875V50.4147C57.7831 50.9115 57.8891 51.3131 58.1011 51.6197C58.3131 51.9262 58.5568 52.1693 58.8324 52.349C59.1186 52.5287 59.3994 52.6555 59.675 52.7295C59.9506 52.7929 60.152 52.8352 60.2792 52.8563C60.3745 52.8775 60.4434 52.9144 60.4858 52.9673C60.5388 53.0201 60.56 53.0783 60.5494 53.1417C60.5494 53.1945 60.5229 53.2474 60.4699 53.3002C60.4169 53.3425 60.3374 53.3637 60.2315 53.3637H54.2219C54.1159 53.3637 54.0364 53.3425 53.9834 53.3002C53.9304 53.2474 53.8986 53.1945 53.888 53.1417C53.888 53.0783 53.9092 53.0201 53.9516 52.9673C54.0046 52.9144 54.0788 52.8775 54.1742 52.8563C54.3014 52.8352 54.5028 52.7929 54.7783 52.7295C55.0539 52.6555 55.3295 52.5287 55.6051 52.349C55.8912 52.1693 56.1403 51.9262 56.3523 51.6197C56.5642 51.3131 56.6702 50.9115 56.6702 50.4147V34.9091C56.6702 34.4229 56.5642 34.0265 56.3523 33.72C56.1403 33.4029 55.8912 33.1598 55.6051 32.9907C55.3295 32.811 55.0539 32.6842 54.7783 32.6102C54.5028 32.5362 54.3014 32.4887 54.1742 32.4675C54.0788 32.457 54.0046 32.4252 53.9516 32.3724C53.9092 32.309 53.888 32.2508 53.888 32.198C53.8986 32.1346 53.9304 32.0817 53.9834 32.0395C54.0364 31.9866 54.1159 31.9602 54.2219 31.9602H62.0598C62.3671 31.9602 62.5738 32.087 62.6798 32.3407C62.7752 32.6049 62.9183 32.9854 63.1091 33.4822C63.2998 33.979 63.5171 34.5445 63.7609 35.1786C64.0047 35.8022 64.2643 36.4787 64.5399 37.208C64.8155 37.9373 65.091 38.6666 65.3666 39.3959C65.6422 40.1146 65.9072 40.8122 66.1615 41.4887C66.4265 42.1651 66.6597 42.7729 66.8611 43.3119C67.073 43.851 67.2479 44.3002 67.3857 44.6596C67.5235 45.0084 67.6083 45.2198 67.6401 45.2938C67.6613 45.3466 67.6931 45.3783 67.7355 45.3889C67.7779 45.3889 67.8097 45.3625 67.8308 45.3096C67.852 45.2568 67.9315 45.0559 68.0693 44.7071C68.2071 44.3583 68.382 43.9197 68.594 43.3912C68.8165 42.8522 69.0656 42.2444 69.3412 41.568C69.6168 40.8809 69.8976 40.1728 70.1838 39.4435C70.4806 38.7142 70.772 37.9849 71.0582 37.2556C71.355 36.5263 71.6305 35.8445 71.8849 35.2103C72.1499 34.5656 72.3831 33.9948 72.5844 33.4981C72.7858 32.9907 72.9395 32.6049 73.0455 32.3407C73.1515 32.087 73.3688 31.9602 73.6973 31.9602H80.7244C80.8304 31.9602 80.9099 31.9866 80.9628 32.0395C81.0158 32.0817 81.0423 32.1346 81.0423 32.198C81.0529 32.2508 81.0317 32.309 80.9787 32.3724C80.9363 32.4252 80.8675 32.457 80.7721 32.4675C80.6449 32.4887 80.4435 32.5362 80.1679 32.6102C79.8924 32.6842 79.6115 32.811 79.3253 32.9907C79.0497 33.1598 78.806 33.4029 78.594 33.72C78.382 34.0265 78.276 34.4229 78.276 34.9091V50.4147C78.276 50.9115 78.382 51.3131 78.594 51.6197C78.806 51.9262 79.0497 52.1693 79.3253 52.349C79.6115 52.5287 79.8924 52.6555 80.1679 52.7295C80.4435 52.7929 80.6449 52.8352 80.7721 52.8563Z" fill="white"/>
<path d="M93.527 31.5163C94.5975 31.5163 95.6149 31.6484 96.5794 31.9126C97.5439 32.1663 98.4342 32.5309 99.2504 33.0066C100.077 33.4822 100.819 34.0583 101.476 34.7347C102.133 35.4006 102.69 36.1405 103.145 36.9543C103.601 37.7682 103.951 38.6508 104.195 39.602C104.449 40.5427 104.576 41.5257 104.576 42.5509C104.576 43.5762 104.439 44.5697 104.163 45.5316C103.898 46.4828 103.516 47.376 103.018 48.211C102.531 49.0354 101.937 49.7964 101.238 50.494C100.538 51.181 99.7591 51.7729 98.9006 52.2697C98.0527 52.7559 97.1359 53.1311 96.1502 53.3954C95.1645 53.6702 94.1311 53.8076 93.05 53.8076C91.4284 53.8076 89.9393 53.5222 88.5826 52.9514C87.2365 52.3807 86.076 51.5985 85.1009 50.605C84.1258 49.6114 83.3627 48.4488 82.8115 47.117C82.271 45.7747 82.0007 44.3319 82.0007 42.7888C82.0007 41.7635 82.1332 40.7752 82.3982 39.824C82.6737 38.8621 83.0553 37.9637 83.5428 37.1287C84.041 36.2937 84.6398 35.5327 85.3393 34.8457C86.0389 34.1481 86.8126 33.5562 87.6605 33.07C88.519 32.5732 89.4411 32.1927 90.4268 31.9285C91.4125 31.6537 92.4459 31.5163 93.527 31.5163ZM93.2885 52.8722C94.1576 52.8722 94.9154 52.6079 95.562 52.0794C96.2085 51.5404 96.7437 50.8111 97.1677 49.8915C97.6022 48.9614 97.9255 47.878 98.1375 46.6414C98.3495 45.4047 98.4555 44.0782 98.4555 42.6619C98.4555 41.2562 98.3495 39.935 98.1375 38.6983C97.9255 37.4511 97.6022 36.3677 97.1677 35.4482C96.7437 34.518 96.2085 33.7887 95.562 33.2603C94.9154 32.7212 94.1576 32.4517 93.2885 32.4517C92.4194 32.4517 91.6616 32.7212 91.015 33.2603C90.3685 33.7887 89.828 34.518 89.3934 35.4482C88.9695 36.3677 88.6515 37.4511 88.4395 38.6983C88.2275 39.935 88.1216 41.2562 88.1216 42.6619C88.1216 44.0782 88.2275 45.4047 88.4395 46.6414C88.6515 47.878 88.9695 48.9614 89.3934 49.8915C89.828 50.8111 90.3685 51.5404 91.015 52.0794C91.6616 52.6079 92.4194 52.8722 93.2885 52.8722Z" fill="white"/>
<path d="M127.492 31.4381C127.6 31.4381 127.682 31.4652 127.736 31.5194C127.79 31.5627 127.817 31.6168 127.817 31.6818C127.828 31.7359 127.806 31.7955 127.752 31.8604C127.709 31.9146 127.638 31.947 127.54 31.9579C127.41 31.9795 127.204 32.0282 126.922 32.104C126.639 32.1798 126.352 32.3098 126.058 32.4938C125.776 32.6671 125.526 32.9161 125.309 33.2409C125.092 33.5549 124.984 33.9609 124.984 34.459V53.1688C124.984 53.3312 124.918 53.4394 124.788 53.4936C124.669 53.5585 124.538 53.5207 124.397 53.3799C124.365 53.3474 124.202 53.1633 123.909 52.8277C123.626 52.4812 123.246 52.0265 122.769 51.4634C122.291 50.9004 121.737 50.2508 121.107 49.5145C120.478 48.7674 119.81 47.9824 119.104 47.1595C118.409 46.3258 117.693 45.4705 116.954 44.5934C116.216 43.7164 115.5 42.8665 114.805 42.0436C114.11 41.2099 113.453 40.4249 112.834 39.6886C112.215 38.9524 111.672 38.3081 111.205 37.7559C110.739 37.2037 110.364 36.7652 110.082 36.4404C109.81 36.1156 109.669 35.9478 109.658 35.9369C109.582 35.8611 109.517 35.8395 109.463 35.872C109.409 35.8936 109.381 35.9532 109.381 36.0506V50.3428C109.381 50.8517 109.49 51.2631 109.707 51.5771C109.924 51.8911 110.174 52.1402 110.456 52.3242C110.749 52.5083 111.037 52.6382 111.319 52.714C111.602 52.779 111.808 52.8223 111.938 52.8439C112.036 52.8656 112.107 52.9035 112.15 52.9576C112.204 53.0118 112.226 53.0713 112.215 53.1363C112.215 53.1904 112.188 53.2445 112.134 53.2987C112.08 53.342 111.998 53.3637 111.89 53.3637H105.701C105.592 53.3637 105.511 53.342 105.457 53.2987C105.402 53.2445 105.37 53.1904 105.359 53.1363C105.359 53.0713 105.381 53.0118 105.424 52.9576C105.478 52.9035 105.554 52.8656 105.652 52.8439C105.782 52.8223 105.989 52.779 106.271 52.714C106.553 52.6382 106.835 52.5083 107.118 52.3242C107.411 52.1402 107.666 51.8911 107.883 51.5771C108.1 51.2631 108.209 50.8517 108.209 50.3428V34.459C108.209 33.9609 108.1 33.5549 107.883 33.2409C107.666 32.9161 107.411 32.6671 107.118 32.4938C106.835 32.3098 106.553 32.1798 106.271 32.104C105.989 32.0282 105.782 31.9795 105.652 31.9579C105.554 31.947 105.478 31.9146 105.424 31.8604C105.381 31.7955 105.359 31.7359 105.359 31.6818C105.37 31.6168 105.402 31.5627 105.457 31.5194C105.511 31.4652 105.592 31.4381 105.701 31.4381H112.166C112.503 31.4381 112.769 31.5518 112.964 31.7792C113.171 32.0282 113.48 32.3964 113.893 32.8836C114.305 33.3708 114.772 33.9285 115.293 34.5564C115.825 35.1736 116.39 35.8449 116.987 36.5703C117.595 37.285 118.198 37.9996 118.795 38.7142C119.403 39.418 119.984 40.1001 120.537 40.7605C121.102 41.421 121.601 42.0111 122.036 42.5308C122.47 43.0397 122.817 43.4512 123.078 43.7652C123.349 44.0792 123.496 44.247 123.518 44.2686C123.605 44.3552 123.675 44.3877 123.729 44.3661C123.784 44.3444 123.811 44.2795 123.811 44.1712V34.459C123.811 33.9609 123.702 33.5549 123.485 33.2409C123.268 32.9161 123.013 32.6671 122.72 32.4938C122.437 32.3098 122.155 32.1798 121.873 32.104C121.591 32.0282 121.384 31.9795 121.254 31.9579C121.156 31.947 121.08 31.9146 121.026 31.8604C120.983 31.7955 120.961 31.7359 120.961 31.6818C120.972 31.6168 121.004 31.5627 121.059 31.5194C121.113 31.4652 121.194 31.4381 121.303 31.4381H127.492Z" fill="white"/>
<path d="M130.989 35.0731C130.844 34.929 130.7 34.7849 130.555 34.6407C130.411 34.4855 130.283 34.3248 130.172 34.1585C130.06 33.9923 129.966 33.8038 129.888 33.5932C129.821 33.3826 129.788 33.1442 129.788 32.8782C129.788 32.5567 129.849 32.2519 129.971 31.9637C130.094 31.6754 130.26 31.426 130.472 31.2154C130.694 30.9937 130.95 30.8219 131.239 30.7C131.539 30.5669 131.861 30.5004 132.206 30.5004C132.55 30.5004 132.867 30.5725 133.156 30.7166C133.445 30.8607 133.69 31.0547 133.89 31.2986C134.101 31.5313 134.262 31.8085 134.373 32.1299C134.484 32.4403 134.54 32.7673 134.54 33.111C134.54 33.8537 134.412 34.5354 134.157 35.1562C133.912 35.777 133.59 36.3312 133.19 36.819C132.789 37.3067 132.345 37.7391 131.856 38.116C131.367 38.4818 130.889 38.7866 130.422 39.0305C130.266 39.1192 130.144 39.1136 130.055 39.0139C129.977 38.903 130.016 38.7644 130.172 38.5982C130.405 38.3654 130.616 38.0882 130.805 37.7668C130.994 37.4453 131.133 37.1183 131.222 36.7857C131.322 36.4532 131.355 36.1372 131.322 35.8379C131.3 35.5276 131.189 35.2726 130.989 35.0731Z" fill="white"/>
<path d="M137.092 53.2786V47.2214C137.092 47.0286 137.16 46.9208 137.297 46.8981C137.433 46.8641 137.536 46.9265 137.604 47.0853C138.013 48.0154 138.457 48.8378 138.935 49.5524C139.424 50.267 139.958 50.8682 140.538 51.3559C141.13 51.8323 141.778 52.1953 142.483 52.4449C143.189 52.6944 143.973 52.8192 144.838 52.8192C145.327 52.8192 145.793 52.7511 146.237 52.615C146.681 52.4676 147.067 52.2407 147.397 51.9344C147.738 51.6282 148.006 51.2368 148.199 50.7604C148.404 50.284 148.506 49.7112 148.506 49.042C148.506 48.4068 148.387 47.851 148.148 47.3745C147.92 46.8868 147.608 46.4558 147.209 46.0814C146.823 45.7071 146.379 45.3838 145.879 45.1116C145.378 44.828 144.866 44.5728 144.343 44.346C143.763 44.0964 143.189 43.8355 142.62 43.5633C142.063 43.2911 141.528 42.9848 141.016 42.6445C140.504 42.3042 140.032 41.9129 139.6 41.4705C139.179 41.0281 138.821 40.5177 138.525 39.9392C138.264 39.4401 138.059 38.9297 137.911 38.4079C137.774 37.8861 137.706 37.3473 137.706 36.7915C137.706 35.9862 137.848 35.1752 138.133 34.3585C138.417 33.5418 138.883 32.8045 139.532 32.1466C140.18 31.4887 141.022 30.9556 142.057 30.5472C143.103 30.1275 144.389 29.9177 145.913 29.9177C146.88 29.9177 147.716 29.9971 148.421 30.1559C149.126 30.3033 149.712 30.4735 150.178 30.6663C150.656 30.8478 151.02 31.0236 151.27 31.1938C151.52 31.3526 151.663 31.449 151.697 31.483C151.833 31.5851 151.901 31.7042 151.901 31.8403V34.937C151.901 35.0164 151.879 35.0844 151.833 35.1411C151.788 35.1865 151.736 35.2149 151.68 35.2262C151.623 35.2262 151.566 35.2149 151.509 35.1922C151.452 35.1581 151.407 35.1014 151.373 35.022C151.156 34.5116 150.9 34.0068 150.605 33.5077C150.309 32.9973 149.934 32.5492 149.479 32.1636C149.035 31.7666 148.489 31.449 147.841 31.2108C147.192 30.9612 146.413 30.8365 145.503 30.8365C144.32 30.8365 143.399 31.1144 142.739 31.6702C142.08 32.226 141.75 32.9803 141.75 33.9331C141.75 34.4776 141.841 34.954 142.023 35.3623C142.205 35.7707 142.512 36.1563 142.944 36.5193C143.388 36.8709 143.973 37.2282 144.701 37.5912C145.429 37.9428 146.345 38.3398 147.448 38.7822C148.518 39.2133 149.462 39.6783 150.281 40.1774C151.1 40.6765 151.782 41.238 152.328 41.8619C152.885 42.4744 153.3 43.172 153.573 43.9546C153.858 44.7373 154 45.6334 154 46.6429C154 47.6411 153.818 48.5769 153.454 49.4503C153.101 50.3237 152.555 51.0894 151.816 51.7473C151.077 52.3938 150.144 52.9043 149.018 53.2786C147.892 53.6529 146.567 53.8401 145.043 53.8401C144.076 53.8401 143.115 53.7153 142.159 53.4657C141.215 53.2275 140.3 52.961 139.412 52.6661C139.287 52.6207 139.151 52.5753 139.003 52.5299C138.855 52.4846 138.713 52.4619 138.576 52.4619C138.303 52.4619 138.104 52.5526 137.979 52.7341C137.854 52.9043 137.735 53.1198 137.621 53.3807C137.553 53.5395 137.445 53.6075 137.297 53.5848C137.16 53.5622 137.092 53.4601 137.092 53.2786Z" fill="white"/>
<path d="M14.3126 68.64C14.3436 68.6477 14.365 68.6612 14.3766 68.6806C14.3882 68.6999 14.3921 68.7212 14.3882 68.7444C14.3844 68.7676 14.3727 68.7888 14.3533 68.8082C14.334 68.8236 14.3068 68.8314 14.2719 68.8314H10.6192C10.592 68.8314 10.5688 68.8236 10.5494 68.8082C10.5339 68.7927 10.5222 68.7753 10.5145 68.756C10.5106 68.7328 10.5145 68.7115 10.5261 68.6922C10.5416 68.6728 10.5688 68.6574 10.6075 68.6458C10.6463 68.6342 10.7142 68.6129 10.8111 68.582C10.9119 68.551 11.0069 68.5007 11.0961 68.4311C11.1892 68.3577 11.2609 68.261 11.3113 68.1411C11.3617 68.0213 11.3559 67.8685 11.2939 67.6829C11.2745 67.6326 11.2474 67.5572 11.2125 67.4567C11.1814 67.3561 11.1465 67.2459 11.1078 67.1261C11.069 67.0023 11.0263 66.8766 10.9798 66.749C10.9371 66.6176 10.8984 66.4977 10.8635 66.3894C10.8286 66.2773 10.7975 66.1825 10.7704 66.1052C10.7433 66.0278 10.7277 65.9814 10.7239 65.966C10.7122 65.9312 10.6909 65.9138 10.6599 65.9138H8.153C8.1181 65.9138 8.09484 65.9292 8.0832 65.9602C8.06769 66.0066 8.04249 66.0839 8.00759 66.1922C7.97657 66.3005 7.93973 66.4223 7.89708 66.5576C7.85442 66.693 7.80983 66.836 7.7633 66.9868C7.72064 67.1338 7.67993 67.2711 7.64115 67.3987C7.60238 67.5263 7.56748 67.6384 7.53646 67.7351C7.50931 67.8279 7.4938 67.8878 7.48992 67.9149C7.4589 68.058 7.46472 68.174 7.50737 68.2629C7.5539 68.3519 7.61595 68.4234 7.6935 68.4776C7.77105 68.5278 7.85442 68.5646 7.94361 68.5878C8.03279 68.611 8.10647 68.6303 8.16463 68.6458C8.19953 68.6535 8.2228 68.669 8.23443 68.6922C8.24606 68.7115 8.24994 68.7328 8.24606 68.756C8.24219 68.7753 8.23055 68.7927 8.21116 68.8082C8.19178 68.8236 8.16851 68.8314 8.14137 68.8314H5.98928C5.95826 68.8314 5.93499 68.8236 5.91948 68.8082C5.90009 68.7927 5.8904 68.7753 5.8904 68.756C5.88652 68.7366 5.89234 68.7173 5.90785 68.698C5.91948 68.6748 5.94081 68.6593 5.97183 68.6516C6.07265 68.6245 6.17153 68.5916 6.26847 68.553C6.36541 68.5143 6.4546 68.4659 6.53603 68.4079C6.62133 68.3461 6.69695 68.2726 6.76287 68.1875C6.83266 68.1025 6.89083 68.0019 6.93736 67.8859C6.96063 67.8279 7.01104 67.6906 7.08859 67.4741C7.16614 67.2537 7.26114 66.9849 7.3736 66.6678C7.48605 66.3469 7.61013 65.993 7.74585 65.6064C7.88156 65.2197 8.01728 64.8291 8.153 64.4347C8.29259 64.0364 8.42831 63.6497 8.56015 63.2746C8.69199 62.8956 8.80832 62.5592 8.90914 62.2653C9.00996 61.9714 9.09139 61.7336 9.15343 61.5519C9.21935 61.3701 9.25425 61.2735 9.25813 61.2619C9.27364 61.2193 9.29302 61.1865 9.31629 61.1632C9.33956 61.14 9.37639 61.1246 9.4268 61.1168C9.51211 61.1014 9.61099 61.0801 9.72344 61.053C9.83589 61.026 9.95028 60.997 10.0666 60.966C10.1868 60.9351 10.3051 60.9022 10.4214 60.8674C10.5377 60.8288 10.6444 60.7882 10.7413 60.7456C10.8072 60.7147 10.8538 60.707 10.8809 60.7224C10.9119 60.7379 10.9371 60.7688 10.9565 60.8152C10.9604 60.8268 10.9914 60.9235 11.0496 61.1052C11.1116 61.287 11.1911 61.5248 11.2881 61.8187C11.3889 62.1087 11.5013 62.4413 11.6254 62.8164C11.7495 63.1915 11.8775 63.5782 12.0093 63.9764C12.145 64.3747 12.2788 64.7711 12.4106 65.1655C12.5425 65.56 12.6627 65.9215 12.7713 66.2502C12.8837 66.5789 12.9787 66.8631 13.0563 67.1029C13.1338 67.3387 13.1881 67.4992 13.2191 67.5843C13.2773 67.7506 13.3452 67.8956 13.4227 68.0193C13.5041 68.1392 13.5914 68.2436 13.6844 68.3325C13.7814 68.4176 13.8822 68.4853 13.9869 68.5356C14.0916 68.5858 14.2002 68.6206 14.3126 68.64ZM8.24606 65.4613C8.22667 65.5116 8.24219 65.5368 8.29259 65.5368H10.5087C10.5552 65.5368 10.5707 65.5136 10.5552 65.4671C10.5513 65.4555 10.5319 65.3995 10.497 65.2989C10.466 65.1945 10.4234 65.0631 10.3691 64.9045C10.3148 64.7421 10.2547 64.5603 10.1888 64.3593C10.1228 64.1582 10.055 63.9552 9.98518 63.7502C9.91538 63.5414 9.84753 63.3384 9.78161 63.1412C9.71569 62.9401 9.65558 62.7622 9.6013 62.6075C9.55089 62.449 9.50823 62.3214 9.47333 62.2247C9.44231 62.128 9.4268 62.0778 9.4268 62.0739C9.41905 62.0468 9.4016 62.0352 9.37445 62.0391C9.35119 62.043 9.33568 62.0565 9.32792 62.0797C9.32405 62.0874 9.30078 62.159 9.25813 62.2943C9.21547 62.4258 9.16119 62.5959 9.09527 62.8048C9.02935 63.0097 8.95567 63.2398 8.87424 63.495C8.79281 63.7464 8.71138 63.9958 8.62995 64.2433C8.5524 64.4907 8.47872 64.7228 8.40892 64.9393C8.343 65.1559 8.28872 65.3299 8.24606 65.4613Z" fill="white"/>
<path d="M36.8823 68.0947C36.9289 68.0793 36.9715 68.0831 37.0103 68.1063C37.0529 68.1257 37.0646 68.1721 37.0452 68.2455C37.0219 68.3345 36.9715 68.4234 36.894 68.5124C36.8203 68.5974 36.7253 68.6767 36.609 68.7502C36.4965 68.8236 36.3666 68.8817 36.2193 68.9242C36.0719 68.9706 35.9129 68.9938 35.7423 68.9938C35.5988 68.9938 35.4554 68.9803 35.3119 68.9532C35.1684 68.9261 35.0308 68.8797 34.8989 68.814C34.771 68.7482 34.6546 68.6612 34.5499 68.553C34.4452 68.4447 34.358 68.3093 34.2882 68.1469C34.2262 68.0077 34.1777 67.8492 34.1428 67.6713C34.1118 67.4895 34.0866 67.2827 34.0672 67.0507C34.0284 66.6021 33.9702 66.2483 33.8927 65.9892C33.819 65.7262 33.7318 65.529 33.6309 65.3975C33.534 65.2622 33.4293 65.1771 33.3168 65.1423C33.2044 65.1075 33.0958 65.0901 32.9911 65.0901C32.8593 65.0901 32.7682 65.1153 32.7178 65.1655C32.6673 65.2158 32.6421 65.3028 32.6421 65.4265V67.7525C32.6421 67.9342 32.6809 68.0812 32.7585 68.1933C32.836 68.3055 32.9252 68.3944 33.026 68.4601C33.1307 68.5259 33.2335 68.5723 33.3343 68.5994C33.4351 68.6226 33.5088 68.638 33.5553 68.6458C33.5902 68.6535 33.6154 68.667 33.6309 68.6864C33.6503 68.7057 33.6581 68.727 33.6542 68.7502C33.6542 68.7695 33.6445 68.7888 33.6251 68.8082C33.6057 68.8236 33.5767 68.8314 33.5379 68.8314H29.827C29.7882 68.8314 29.7591 68.8236 29.7397 68.8082C29.7203 68.7888 29.7087 68.7695 29.7048 68.7502C29.7048 68.727 29.7126 68.7057 29.7281 68.6864C29.7475 68.667 29.7746 68.6535 29.8095 68.6458C29.8561 68.638 29.9297 68.6226 30.0306 68.5994C30.1314 68.5723 30.2322 68.5259 30.333 68.4601C30.4377 68.3944 30.5288 68.3055 30.6064 68.1933C30.6839 68.0812 30.7227 67.9342 30.7227 67.7525V62.0797C30.7227 61.9018 30.6839 61.7568 30.6064 61.6447C30.5288 61.5287 30.4377 61.4397 30.333 61.3779C30.2322 61.3121 30.1314 61.2657 30.0306 61.2387C29.9297 61.2116 29.8561 61.1942 29.8095 61.1865C29.7746 61.1826 29.7475 61.171 29.7281 61.1516C29.7126 61.1284 29.7048 61.1072 29.7048 61.0878C29.7087 61.0646 29.7203 61.0453 29.7397 61.0298C29.7591 61.0105 29.7882 61.0008 29.827 61.0008H33.4099C33.6309 61.0008 33.8481 61.0028 34.0614 61.0066C34.2785 61.0105 34.4879 61.0298 34.6895 61.0646C34.895 61.0994 35.0928 61.1575 35.2828 61.2387C35.4767 61.3199 35.6628 61.4378 35.8412 61.5925C35.9847 61.7201 36.101 61.8728 36.1902 62.0507C36.2832 62.2247 36.3472 62.4084 36.3821 62.6017C36.4209 62.7951 36.4287 62.9923 36.4054 63.1934C36.386 63.3945 36.3356 63.582 36.2542 63.756C36.1146 64.0654 35.9323 64.3051 35.7074 64.4753C35.4825 64.6416 35.213 64.7692 34.8989 64.8581C34.8679 64.8658 34.8505 64.8794 34.8466 64.8987C34.8427 64.9142 34.8543 64.9238 34.8815 64.9277C34.9125 64.9354 34.9668 64.949 35.0443 64.9683C35.1219 64.9876 35.2091 65.0205 35.3061 65.0669C35.403 65.1095 35.5 65.1694 35.5969 65.2467C35.6938 65.3241 35.7753 65.4207 35.8412 65.5368C35.9226 65.6798 35.9788 65.8616 36.0099 66.082C36.0448 66.2985 36.0661 66.5286 36.0738 66.7722C36.0894 67.0391 36.1049 67.2614 36.1204 67.4393C36.1398 67.6133 36.1727 67.7506 36.2193 67.8511C36.2542 67.9323 36.2988 67.9942 36.353 68.0367C36.4112 68.0754 36.4713 68.1025 36.5333 68.1179C36.5954 68.1334 36.6574 68.1392 36.7195 68.1353C36.7815 68.1276 36.8358 68.1141 36.8823 68.0947ZM32.7759 64.7537C32.8767 64.7537 32.9872 64.7498 33.1075 64.7421C33.2315 64.7344 33.3537 64.7131 33.4739 64.6783C33.598 64.6396 33.7162 64.5816 33.8287 64.5043C33.945 64.4231 34.0458 64.3109 34.1312 64.1679C34.2203 64.0209 34.2901 63.8372 34.3405 63.6168C34.3948 63.3964 34.422 63.1257 34.422 62.8048C34.422 62.5263 34.4006 62.2943 34.358 62.1087C34.3153 61.9192 34.2533 61.7684 34.1719 61.6563C34.0943 61.5403 33.9974 61.4571 33.881 61.4069C33.7686 61.3566 33.6406 61.3315 33.4972 61.3315C33.3692 61.3315 33.2529 61.3489 33.1482 61.3837C33.0435 61.4146 32.9524 61.4668 32.8748 61.5403C32.8011 61.6138 32.743 61.7066 32.7003 61.8187C32.6615 61.9308 32.6421 62.0681 32.6421 62.2305V64.6261C32.6421 64.7112 32.6867 64.7537 32.7759 64.7537Z" fill="white"/>
<path d="M52.9658 64.9567C52.9658 64.3921 53.0744 63.8604 53.2915 63.3616C53.5087 62.8628 53.8072 62.4258 54.1872 62.0507C54.5711 61.6756 55.0209 61.3798 55.5367 61.1632C56.0524 60.9467 56.6108 60.8384 57.2118 60.8384C57.5414 60.8384 57.8361 60.8636 58.0959 60.9138C58.3596 60.9641 58.5845 61.0221 58.7706 61.0878C58.9567 61.1497 59.1022 61.2097 59.2068 61.2677C59.3154 61.3218 59.3755 61.3547 59.3872 61.3663C59.4337 61.4011 59.457 61.4417 59.457 61.4881V62.8628C59.457 62.8898 59.4492 62.9111 59.4337 62.9266C59.4182 62.942 59.4007 62.9517 59.3813 62.9556C59.362 62.9594 59.3426 62.9556 59.3232 62.944C59.3038 62.9324 59.2883 62.915 59.2766 62.8918C59.203 62.7178 59.1138 62.5302 59.0091 62.3291C58.9083 62.128 58.7803 61.9424 58.6252 61.7723C58.4701 61.5983 58.284 61.4552 58.0668 61.3431C57.8536 61.2309 57.5996 61.1749 57.3049 61.1749C56.9287 61.1749 56.6069 61.2735 56.3393 61.4707C56.0757 61.664 55.8585 61.9308 55.6879 62.2711C55.5212 62.6076 55.399 63.0039 55.3215 63.4602C55.2439 63.9126 55.2051 64.396 55.2051 64.9103C55.2051 65.4285 55.2652 65.8886 55.3854 66.2908C55.5095 66.693 55.6918 67.0332 55.9322 67.3117C56.1726 67.5862 56.4731 67.797 56.8337 67.9439C57.1982 68.087 57.619 68.1585 58.0959 68.1585C58.348 68.1585 58.6097 68.1315 58.8811 68.0773C59.1564 68.0232 59.424 67.9284 59.6838 67.7931C59.7109 67.7776 59.7361 67.7738 59.7594 67.7815C59.7866 67.7854 59.8059 67.795 59.8176 67.8105C59.8331 67.826 59.8389 67.8472 59.835 67.8743C59.835 67.8975 59.8215 67.9226 59.7943 67.9497C59.457 68.2823 59.0614 68.5394 58.6078 68.7212C58.1541 68.9029 57.6403 68.9938 57.0664 68.9938C56.4188 68.9938 55.8411 68.8894 55.3331 68.6806C54.8251 68.4718 54.3947 68.1856 54.0418 67.8221C53.6928 67.4547 53.4253 67.0274 53.2392 66.5402C53.0569 66.0491 52.9658 65.5213 52.9658 64.9567Z" fill="white"/>
<path d="M83.7999 68.6458C83.8348 68.6535 83.86 68.667 83.8755 68.6864C83.8949 68.7057 83.9026 68.727 83.8988 68.7502C83.8988 68.7695 83.8891 68.7888 83.8697 68.8082C83.8503 68.8236 83.8212 68.8314 83.7824 68.8314H80.0715C80.0327 68.8314 80.0037 68.8236 79.9843 68.8082C79.9649 68.7888 79.9533 68.7695 79.9494 68.7502C79.9494 68.727 79.9571 68.7057 79.9726 68.6864C79.992 68.667 80.0192 68.6535 80.0541 68.6458C80.1006 68.638 80.1743 68.6226 80.2751 68.5994C80.3759 68.5723 80.4767 68.5259 80.5776 68.4601C80.6822 68.3944 80.7734 68.3055 80.8509 68.1933C80.9285 68.0812 80.9673 67.9342 80.9673 67.7525V64.9915H78.4429V67.7525C78.4429 67.9342 78.4817 68.0812 78.5592 68.1933C78.6368 68.3055 78.726 68.3944 78.8268 68.4601C78.9315 68.5259 79.0343 68.5723 79.1351 68.5994C79.2359 68.6226 79.3096 68.638 79.3561 68.6458C79.391 68.6535 79.4162 68.667 79.4317 68.6864C79.4511 68.7057 79.4589 68.727 79.455 68.7502C79.455 68.7695 79.4453 68.7888 79.4259 68.8082C79.4065 68.8236 79.3774 68.8314 79.3386 68.8314H75.6278C75.589 68.8314 75.5599 68.8236 75.5405 68.8082C75.5211 68.7888 75.5095 68.7695 75.5056 68.7502C75.5056 68.727 75.5134 68.7057 75.5289 68.6864C75.5483 68.667 75.5754 68.6535 75.6103 68.6458C75.6568 68.638 75.7305 68.6226 75.8313 68.5994C75.9321 68.5723 76.033 68.5259 76.1338 68.4601C76.2385 68.3944 76.3296 68.3055 76.4072 68.1933C76.4847 68.0812 76.5235 67.9342 76.5235 67.7525V62.0797C76.5235 61.9018 76.4847 61.7568 76.4072 61.6447C76.3296 61.5287 76.2385 61.4397 76.1338 61.3779C76.033 61.3121 75.9321 61.2657 75.8313 61.2387C75.7305 61.2116 75.6568 61.1942 75.6103 61.1865C75.5754 61.1826 75.5483 61.171 75.5289 61.1516C75.5134 61.1284 75.5056 61.1072 75.5056 61.0878C75.5095 61.0646 75.5211 61.0453 75.5405 61.0298C75.5599 61.0105 75.589 61.0008 75.6278 61.0008H79.3386C79.3774 61.0008 79.4065 61.0105 79.4259 61.0298C79.4453 61.0453 79.455 61.0646 79.455 61.0878C79.4589 61.1072 79.4511 61.1284 79.4317 61.1516C79.4162 61.171 79.391 61.1826 79.3561 61.1865C79.3096 61.1942 79.2359 61.2116 79.1351 61.2387C79.0343 61.2657 78.9315 61.3121 78.8268 61.3779C78.726 61.4397 78.6368 61.5287 78.5592 61.6447C78.4817 61.7568 78.4429 61.9018 78.4429 62.0797V64.6145H80.9673V62.0797C80.9673 61.9018 80.9285 61.7568 80.8509 61.6447C80.7734 61.5287 80.6822 61.4397 80.5776 61.3779C80.4767 61.3121 80.3759 61.2657 80.2751 61.2387C80.1743 61.2116 80.1006 61.1942 80.0541 61.1865C80.0192 61.1826 79.992 61.171 79.9726 61.1516C79.9571 61.1284 79.9494 61.1072 79.9494 61.0878C79.9533 61.0646 79.9649 61.0453 79.9843 61.0298C80.0037 61.0105 80.0327 61.0008 80.0715 61.0008H83.7824C83.8212 61.0008 83.8503 61.0105 83.8697 61.0298C83.8891 61.0453 83.8988 61.0646 83.8988 61.0878C83.9026 61.1072 83.8949 61.1284 83.8755 61.1516C83.86 61.171 83.8348 61.1826 83.7999 61.1865C83.7533 61.1942 83.6797 61.2116 83.5788 61.2387C83.478 61.2657 83.3753 61.3121 83.2706 61.3779C83.1698 61.4397 83.0806 61.5287 83.003 61.6447C82.9255 61.7568 82.8867 61.9018 82.8867 62.0797V67.7525C82.8867 67.9342 82.9255 68.0812 83.003 68.1933C83.0806 68.3055 83.1698 68.3944 83.2706 68.4601C83.3753 68.5259 83.478 68.5723 83.5788 68.5994C83.6797 68.6226 83.7533 68.638 83.7999 68.6458Z" fill="white"/>
<path d="M103.5 68.6458C103.535 68.6535 103.561 68.667 103.576 68.6864C103.595 68.7057 103.603 68.727 103.599 68.7502C103.599 68.7695 103.59 68.7888 103.57 68.8082C103.551 68.8236 103.522 68.8314 103.483 68.8314H99.7721C99.7333 68.8314 99.7042 68.8236 99.6848 68.8082C99.6655 68.7888 99.6538 68.7695 99.6499 68.7502C99.6499 68.727 99.6577 68.7057 99.6732 68.6864C99.6926 68.667 99.7197 68.6535 99.7546 68.6458C99.8012 68.638 99.8748 68.6226 99.9757 68.5994C100.076 68.5723 100.177 68.5259 100.278 68.4601C100.383 68.3944 100.474 68.3055 100.551 68.1933C100.629 68.0812 100.668 67.9342 100.668 67.7525V62.0797C100.668 61.9018 100.629 61.7568 100.551 61.6447C100.474 61.5287 100.383 61.4397 100.278 61.3779C100.177 61.3121 100.076 61.2657 99.9757 61.2387C99.8748 61.2116 99.8012 61.1942 99.7546 61.1865C99.7197 61.1826 99.6926 61.171 99.6732 61.1516C99.6577 61.1284 99.6499 61.1072 99.6499 61.0878C99.6538 61.0646 99.6655 61.0453 99.6848 61.0298C99.7042 61.0105 99.7333 61.0008 99.7721 61.0008H103.483C103.522 61.0008 103.551 61.0105 103.57 61.0298C103.59 61.0453 103.599 61.0646 103.599 61.0878C103.603 61.1072 103.595 61.1284 103.576 61.1516C103.561 61.171 103.535 61.1826 103.5 61.1865C103.454 61.1942 103.38 61.2116 103.279 61.2387C103.179 61.2657 103.076 61.3121 102.971 61.3779C102.87 61.4397 102.781 61.5287 102.704 61.6447C102.626 61.7568 102.587 61.9018 102.587 62.0797V67.7525C102.587 67.9342 102.626 68.0812 102.704 68.1933C102.781 68.3055 102.87 68.3944 102.971 68.4601C103.076 68.5259 103.179 68.5723 103.279 68.5994C103.38 68.6226 103.454 68.638 103.5 68.6458Z" fill="white"/>
<path d="M124.785 61.9115C124.824 61.7723 124.822 61.6602 124.779 61.5751C124.737 61.4861 124.675 61.4165 124.593 61.3663C124.516 61.3121 124.43 61.2735 124.337 61.2503C124.244 61.2232 124.169 61.2019 124.111 61.1865C124.076 61.1787 124.052 61.1652 124.041 61.1459C124.029 61.1226 124.025 61.1014 124.029 61.082C124.033 61.0588 124.043 61.0395 124.058 61.024C124.078 61.0086 124.103 61.0008 124.134 61.0008H126.286C126.313 61.0008 126.334 61.0086 126.35 61.024C126.369 61.0395 126.381 61.0588 126.385 61.082C126.389 61.1014 126.383 61.1207 126.367 61.14C126.356 61.1594 126.334 61.1729 126.303 61.1806C126.098 61.2348 125.912 61.3179 125.745 61.4301C125.582 61.5422 125.45 61.7143 125.349 61.9463C125.295 62.07 125.221 62.2479 125.128 62.4799C125.039 62.712 124.935 62.9788 124.814 63.2804C124.698 63.582 124.572 63.9088 124.436 64.2607C124.304 64.6125 124.169 64.9722 124.029 65.3395C123.89 65.7069 123.752 66.0704 123.616 66.43C123.48 66.7896 123.352 67.128 123.232 67.4451C123.116 67.7622 123.009 68.0502 122.912 68.3093C122.815 68.5646 122.738 68.7695 122.68 68.9242C122.66 68.9706 122.629 68.9957 122.587 68.9996C122.548 69.0035 122.519 68.9803 122.499 68.93C122.449 68.7869 122.381 68.5974 122.296 68.3615C122.214 68.1257 122.119 67.8588 122.011 67.5611C121.906 67.2595 121.792 66.9385 121.668 66.5982C121.547 66.2579 121.423 65.9138 121.295 65.5658C121.171 65.2139 121.047 64.8697 120.923 64.5333C120.799 64.193 120.681 63.8759 120.568 63.582C120.46 63.2881 120.359 63.0252 120.266 62.7932C120.177 62.5611 120.101 62.3794 120.039 62.2479C119.892 61.9308 119.727 61.6872 119.545 61.5171C119.366 61.3431 119.167 61.2348 118.946 61.1922C118.915 61.1884 118.893 61.1768 118.882 61.1575C118.87 61.1342 118.866 61.111 118.87 61.0878C118.874 61.0646 118.885 61.0453 118.905 61.0298C118.924 61.0105 118.951 61.0008 118.986 61.0008H122.639C122.666 61.0008 122.687 61.0086 122.703 61.024C122.722 61.0395 122.734 61.0588 122.738 61.082C122.746 61.1014 122.742 61.1207 122.726 61.14C122.715 61.1594 122.689 61.1749 122.651 61.1865C122.623 61.1942 122.583 61.2058 122.528 61.2213C122.478 61.2367 122.422 61.2599 122.36 61.2909C122.298 61.3179 122.236 61.3547 122.174 61.4011C122.112 61.4436 122.059 61.4997 122.017 61.5693C121.978 61.6389 121.951 61.722 121.935 61.8187C121.924 61.9115 121.935 62.0217 121.97 62.1493C122.009 62.3001 122.063 62.4819 122.133 62.6946C122.207 62.9034 122.286 63.1277 122.371 63.3674C122.457 63.6072 122.544 63.8527 122.633 64.104C122.726 64.3515 122.815 64.5874 122.901 64.8117C122.986 65.036 123.064 65.239 123.133 65.4207C123.203 65.6025 123.257 65.7456 123.296 65.85C123.312 65.8848 123.331 65.9022 123.354 65.9022C123.382 65.8983 123.401 65.8809 123.413 65.85C123.451 65.7417 123.506 65.589 123.575 65.3917C123.649 65.1945 123.729 64.9741 123.814 64.7305C123.903 64.4869 123.996 64.2297 124.093 63.959C124.19 63.6884 124.283 63.4254 124.372 63.1702C124.461 62.915 124.541 62.6772 124.611 62.4567C124.684 62.2363 124.743 62.0546 124.785 61.9115Z" fill="white"/>
<path d="M147.789 67.1609C147.813 67.099 147.849 67.0719 147.9 67.0797C147.95 67.0835 147.976 67.1164 147.976 67.1783V68.7212C147.976 68.7946 147.935 68.8314 147.853 68.8314H141.676C141.638 68.8314 141.608 68.8236 141.589 68.8082C141.57 68.7888 141.558 68.7695 141.554 68.7502C141.554 68.727 141.562 68.7057 141.577 68.6864C141.597 68.667 141.624 68.6535 141.659 68.6458C141.705 68.638 141.779 68.6226 141.88 68.5994C141.981 68.5723 142.082 68.5259 142.182 68.4601C142.287 68.3944 142.378 68.3055 142.456 68.1933C142.533 68.0812 142.572 67.9342 142.572 67.7525V62.0797C142.572 61.9018 142.533 61.7568 142.456 61.6447C142.378 61.5287 142.287 61.4397 142.182 61.3779C142.082 61.3121 141.981 61.2657 141.88 61.2387C141.779 61.2116 141.705 61.1942 141.659 61.1865C141.624 61.1826 141.597 61.171 141.577 61.1516C141.562 61.1284 141.554 61.1072 141.554 61.0878C141.558 61.0646 141.57 61.0453 141.589 61.0298C141.608 61.0105 141.638 61.0008 141.676 61.0008H147.347C147.429 61.0008 147.469 61.0376 147.469 61.111V62.3175C147.469 62.3755 147.446 62.4084 147.4 62.4161C147.353 62.42 147.314 62.3949 147.283 62.3407C147.26 62.2905 147.214 62.2112 147.144 62.1029C147.074 61.9908 146.977 61.8786 146.853 61.7665C146.729 61.6505 146.574 61.5499 146.388 61.4649C146.201 61.3759 145.979 61.3315 145.719 61.3315C145.536 61.3315 145.37 61.3469 145.219 61.3779C145.067 61.4088 144.937 61.4591 144.829 61.5287C144.724 61.5944 144.641 61.6814 144.579 61.7897C144.521 61.8941 144.491 62.0217 144.491 62.1725V64.6203V64.5333C144.491 64.5565 144.499 64.5777 144.515 64.5971C144.534 64.6126 144.555 64.6203 144.579 64.6203H145.323C145.498 64.6203 145.639 64.5855 145.748 64.5159C145.86 64.4463 145.948 64.3651 146.01 64.2723C146.075 64.1795 146.122 64.0886 146.149 63.9996C146.176 63.9068 146.194 63.8372 146.201 63.7908C146.205 63.7599 146.217 63.7386 146.236 63.727C146.26 63.7116 146.281 63.7058 146.3 63.7096C146.324 63.7096 146.343 63.7193 146.359 63.7386C146.378 63.7541 146.388 63.7773 146.388 63.8082V65.7804C146.388 65.8113 146.378 65.8364 146.359 65.8558C146.343 65.8712 146.324 65.8809 146.3 65.8848C146.281 65.8848 146.26 65.879 146.236 65.8674C146.217 65.8519 146.205 65.8287 146.201 65.7978C146.194 65.7514 146.176 65.6837 146.149 65.5948C146.122 65.502 146.075 65.4091 146.01 65.3163C145.948 65.2235 145.86 65.1423 145.748 65.0727C145.639 65.0031 145.498 64.9683 145.323 64.9683H144.579C144.555 64.9683 144.534 64.978 144.515 64.9973C144.499 65.0128 144.491 65.0321 144.491 65.0553V64.9683V67.6423C144.491 67.9168 144.612 68.1257 144.852 68.2687C145.092 68.4118 145.434 68.4834 145.876 68.4834C146.085 68.4834 146.275 68.4563 146.446 68.4021C146.62 68.3441 146.775 68.2726 146.911 68.1875C147.051 68.1025 147.171 68.0077 147.272 67.9033C147.376 67.795 147.464 67.6926 147.533 67.5959C147.607 67.4992 147.663 67.4122 147.702 67.3349C147.745 67.2537 147.774 67.1957 147.789 67.1609Z" fill="white"/>
</svg>
